# xmcd
#
# Track frame offsets:
# 150
# 20082
# 42095
# 59912
# 78047
#
# Disc length: 1276 seconds
#
# Revision: 0
# Processed by: cddbd v1.5.1PL2 Copyright (c) Steve Scherf et al.
# Submitted via: plextools 2.32a
#
DISCID=3a04fa05
DTITLE=amica - この夢 かなえて(Groove That Spark Mix)・Hell^o^/
DYEAR=2002
DGENRE=Pop
TTITLE0=amica - この夢 かなえて(Groove That Spark Mix)
TTITLE1=amica - Hell^o^/
TTITLE2=amica - この夢 かなえて
TTITLE3=amica - Hell^o^/(PISTON NISHIZAWA RMX feat.下町兄弟)
TTITLE4=amica - Hell^o^/(instrumental)
EXTD=
EXTT0=
EXTT1=
EXTT2=
EXTT3=
EXTT4=
PLAYORDER=
